<svg xmlns="http://www.w3.org/2000/svg" xmlns:xlink="http://www.w3.org/1999/xlink" version="1.1" id="Your_Icon" x="0px" y="0px" width="100px" height="100px" viewBox="0 0 100 100" enable-background="new 0 0 100 100" xml:space="preserve">
<path d="M86.352,62.852c0-6.848-7.984-11.001-13.586-7.041c-1.205,0.853-2.184,2.014-2.817,3.347  c-0.139,0.292-1.139,3.694-0.842,3.694c-0.703,0-1.407,0-2.111,0c-8.26,0-16.52,0-24.779,0c-2.743,0-5.487,0-8.23,0  c-0.18,0-1.343-4.229-1.867-4.97c-1.92-2.716-5.315-4.103-8.589-3.509c-2.958,0.537-5.479,2.655-6.528,5.472  c-0.146,0.394-0.595,3.007-0.671,3.007c-0.713,0-1.427,0-2.141,0c-3.468,0-7.531,0.621-10.946-0.078  c-4.374-0.896-3.058-7.814-3.058-10.99c0-2.997,0.323-5.38,1.144-8.256c0.993-3.474,1.985-6.948,2.978-10.422  c0.708-2.479,2.909-2.806,5.045-2.806c14.421,0,28.843,0,43.264,0c13.85,0,27.699,0,41.549,0c0.266,0,0.531,0,0.798,0  c1.097,0,0.962,1.202,0.962,1.915c0,1.439-0.542,1.283-1.312,2.228c-0.611,0.75,0.401,2.498,0.652,3.201  c0.778,2.177,1.556,4.355,2.333,6.532c1.066,2.985,2.157,5.575,2.157,8.77c0,2.059,1.289,9.907-2.053,9.907  C93.92,62.852,90.136,62.852,86.352,62.852 M94.846,47.533c2.698,0,0.601-4.024,0.206-5.129c-0.811-2.271-1.622-4.54-2.433-6.81  c-0.664-1.86-2.377-1.465-4.036-1.465c-1.329,0-6.635-0.85-6.635,1.436c-0.458,1.673,0,4.104,0,5.829  c0,1.284-0.792,6.139,1.436,6.139c1.583,0.415,3.827,0,5.454,0C90.84,47.533,92.843,47.533,94.846,47.533 M78.022,47.533  c2.638,0,1.437-10.001,1.437-11.814c0-2.215-3.274-1.589-4.686-1.589c-1.419,0-4.699-0.663-5.228,1.185  c-0.565,1.979-1.131,3.958-1.696,5.937c-0.349,1.221-1.889,4.277-1.131,5.57c0.777,1.328,4.232,0.712,5.437,0.712  C74.111,47.533,76.066,47.533,78.022,47.533 M62.482,47.533c1.776,0,2.159-3.766,2.5-4.959c0.627-2.192,1.253-4.386,1.88-6.578  c0.701-2.456-3.306-1.867-4.556-1.867c-1.859,0-4.684-0.557-6.466,0c-1.775,0-2.159,3.765-2.5,4.958  c-0.626,2.192-1.253,4.385-1.879,6.577C50.613,48.636,60.802,47.533,62.482,47.533 M47.355,47.533c1.776,0,2.159-3.766,2.5-4.959  c0.627-2.192,1.253-4.386,1.88-6.578c0.701-2.456-3.305-1.867-4.556-1.867c-1.859,0-4.684-0.557-6.466,0  c-1.775,0-2.159,3.765-2.5,4.958c-0.626,2.192-1.253,4.385-1.879,6.577C35.486,48.636,45.675,47.533,47.355,47.533 M32.229,47.533  c1.776,0,2.159-3.766,2.5-4.959c0.627-2.192,1.253-4.386,1.88-6.578c0.701-2.456-3.305-1.867-4.556-1.867  c-1.859,0-4.684-0.557-6.466,0c-1.775,0-2.159,3.765-2.5,4.958c-0.626,2.192-1.253,4.385-1.879,6.577  C20.359,48.635,30.548,47.533,32.229,47.533 M17.102,47.533c1.775,0,2.159-3.766,2.5-4.959c0.627-2.192,1.254-4.386,1.88-6.578  c0.702-2.456-3.307-1.867-4.556-1.867c-1.859,0-4.683-0.556-6.465,0c-1.776,0-2.159,3.764-2.5,4.958  c-0.626,2.192-1.253,4.385-1.879,6.577C5.232,48.636,15.421,47.533,17.102,47.533"/>
<path d="M17.998,62.852c0,9.132,14.161,9.131,14.161,0C32.159,53.72,17.998,53.72,17.998,62.852"/>
<path d="M70.654,62.852c0,9.131,14.161,9.131,14.161,0C84.815,53.72,70.654,53.72,70.654,62.852"/>
</svg>